<svg class="footer-social-ico" width="26" height="26" viewBox="0 0 26 26" fill="none" xmlns="http://www.w3.org/2000/svg">
<g clip-path="url(#clip0-viber)">
<path d="M2.07934e-07 12.5015C-0.000450665 10.0289 0.732345 7.61169 2.10571 5.55559C3.47908 3.49949 5.43134 1.89683 7.71558 0.9503C9.99983 0.00376842 12.5135 -0.244121 14.9386 0.237981C17.3637 0.720082 19.5914 1.91052 21.34 3.65875C23.0885 5.40697 24.2794 7.63446 24.7619 10.0595C25.2445 12.4845 24.997 14.9982 24.0509 17.2826C23.1048 19.5671 21.5025 21.5196 19.4466 22.8934C17.3908 24.2671 14.9737 25.0003 12.5011 25.0003C9.18603 25.0003 6.00666 23.6836 3.66231 21.3396C1.31795 18.9957 0.000604715 15.8166 2.07934e-07 12.5015Z" fill="#7B519D"/>
<path d="M17.9833 15.3626C17.5798 15.0389 17.149 14.7471 16.725 14.4508C15.8793 13.8558 15.1065 13.8102 14.4751 14.7654C14.1195 15.3011 13.6248 15.3261 13.1073 15.0891C11.689 14.4976 10.5483 13.3894 9.91595 11.9888C9.631 11.346 9.63328 10.7693 10.3035 10.3156C10.6568 10.074 11.0147 9.78907 10.9873 9.26477C10.9509 8.5809 9.28679 6.30133 8.63027 6.0483C8.3661 5.95135 8.07608 5.95135 7.81191 6.0483C6.27092 6.56576 5.63264 7.8332 6.24357 9.33316C8.07406 13.7988 11.2814 16.9241 15.6969 18.8253C15.9192 18.9078 16.148 18.9719 16.3808 19.0168C17.3861 19.0168 18.5646 18.0571 18.9043 17.0951C19.2303 16.1833 18.5395 15.8048 17.9924 15.3626H17.9833Z" fill="#F1F2F2"/>
<path d="M13.0297 6.33056C16.2599 6.82751 17.7484 8.36166 18.1587 11.6146C18.1975 11.9155 18.0858 12.3669 18.5144 12.3737C18.9429 12.3805 18.854 11.9383 18.8586 11.6374C18.895 8.57366 16.2257 5.7356 13.1232 5.63074C12.8952 5.66493 12.4051 5.46889 12.3755 5.99319C12.355 6.34652 12.763 6.28953 13.0297 6.33056Z" fill="#F1F2F2"/>
<path d="M13.6613 7.22215C13.3513 7.18568 12.941 7.03751 12.868 7.46835C12.7951 7.89919 13.251 7.87639 13.5519 7.9425C15.5442 8.38701 16.2395 9.11192 16.5678 11.0906C16.6156 11.3801 16.5199 11.8292 17.01 11.7539C17.3724 11.6992 17.238 11.314 17.2721 11.0883C17.2881 9.18942 15.6605 7.46151 13.6682 7.21304L13.6613 7.22215Z" fill="#F1F2F2"/>
<path d="M13.846 8.7832C13.6385 8.7832 13.4357 8.81056 13.3581 9.03395C13.2442 9.36449 13.4858 9.442 13.7297 9.48987C14.5481 9.6198 14.9789 10.1031 15.061 10.9192C15.0815 11.1471 15.2228 11.3204 15.4371 11.293C15.7335 11.2588 15.7608 10.9944 15.7517 10.7436C15.7654 9.8318 14.7304 8.76953 13.846 8.79004V8.7832Z" fill="#F1F2F2"/>
</g>
<defs>
<clipPath id="clip0-viber">
<rect width="24.9977" height="25" fill="white"/>
</clipPath>
</defs>
</svg>
