<svg width="50" height="50" viewBox="0 0 50 50" fill="none" xmlns="http://www.w3.org/2000/svg">
<g clip-path="url(#clip0_175_121)">
<path d="M24.0431 48.0765C19.2875 48.0782 14.6382 46.6695 10.6832 44.0288C6.72823 41.388 3.64523 37.6336 1.82413 33.2405C0.00302804 28.8474 -0.474358 24.013 0.452347 19.3484C1.37905 14.684 3.66821 10.3992 7.03033 7.03584C10.3924 3.6725 14.6764 1.38177 19.3406 0.453355C24.0046 -0.475058 28.8392 0.000556392 33.2331 1.82005C37.6269 3.63954 41.3823 6.72117 44.0246 10.6752C46.6669 14.6292 48.0771 19.278 48.0771 24.0336C48.0679 30.4057 45.5331 36.5143 41.0281 41.0211C36.5231 45.5278 30.4154 48.0647 24.0431 48.0765Z" fill="#245A9B"/>
<path fill-rule="evenodd" clip-rule="evenodd" d="M20.2648 24.1495V38.0732C20.2648 38.169 20.3029 38.2609 20.3706 38.3286C20.4383 38.3963 20.5302 38.4344 20.626 38.4344H25.7956C25.8437 38.4355 25.8915 38.427 25.9364 38.4095C25.9812 38.3918 26.0221 38.3655 26.0565 38.3318C26.091 38.2982 26.1185 38.258 26.1371 38.2136C26.1558 38.1692 26.1654 38.1215 26.1654 38.0732V23.9205H29.9523C30.0423 23.9211 30.1292 23.8878 30.196 23.8276C30.2629 23.7672 30.3046 23.6843 30.3135 23.5947L30.6746 19.3234C30.6783 19.2738 30.6715 19.224 30.655 19.1771C30.6385 19.1302 30.6125 19.0872 30.5787 19.0508C30.5446 19.0144 30.5037 18.9854 30.4581 18.9657C30.4125 18.9459 30.3633 18.9357 30.3135 18.9359H26.1654V15.9063C26.1654 15.5653 26.301 15.2382 26.5419 14.9971C26.7831 14.756 27.1102 14.6205 27.4512 14.6205H30.3398C30.3881 14.6217 30.436 14.6132 30.4808 14.5956C30.5256 14.5779 30.5665 14.5515 30.601 14.5179C30.6354 14.4842 30.6627 14.444 30.6815 14.3997C30.7002 14.3552 30.7098 14.3076 30.7098 14.2594V9.99686C30.7098 9.89875 30.6708 9.80467 30.6014 9.73531C30.5321 9.66594 30.4381 9.62696 30.3398 9.62696H25.4608C24.7783 9.62581 24.1019 9.75942 23.471 10.0201C22.84 10.2808 22.2667 10.6635 21.784 11.1463C21.3014 11.629 20.9187 12.2023 20.6579 12.8332C20.3973 13.4642 20.2637 14.1404 20.2648 14.823V18.9359H17.6844C17.5886 18.9359 17.4968 18.9739 17.429 19.0416C17.3613 19.1093 17.3233 19.2012 17.3233 19.297V23.5595C17.3233 23.6553 17.3613 23.747 17.429 23.8147C17.4968 23.8826 17.5886 23.9205 17.6844 23.9205H20.2648V24.1495Z" fill="white"/>
</g>
<defs>
<clipPath id="clip0_175_121">
<rect width="50" height="50" fill="white"/>
</clipPath>
</defs>
</svg>
