<svg width="50" height="50" viewBox="0 0 50 50" fill="none" xmlns="http://www.w3.org/2000/svg">
<g clip-path="url(#clip0_175_105)">
<path d="M24.0165 44.8859C35.645 44.8859 45.0717 35.4591 45.0717 23.8307C45.0717 12.2022 35.645 2.77539 24.0165 2.77539C12.388 2.77539 2.9612 12.2022 2.9612 23.8307C2.9612 35.4591 12.388 44.8859 24.0165 44.8859Z" fill="white"/>
<path d="M24.0317 48.0737C19.2761 48.0737 14.6273 46.6633 10.6733 44.021C6.71923 41.3787 3.6376 37.6233 1.81811 33.2294C-0.00137786 28.8356 -0.47699 24.001 0.45143 19.3369C1.37985 14.6728 3.6706 10.3888 7.03395 7.02668C10.3973 3.66456 14.6821 1.3754 19.3467 0.448701C24.0111 -0.477998 28.8455 -0.000603499 33.2386 1.82051C37.6319 3.64162 41.3861 6.72464 44.0269 10.6796C46.6678 14.6346 48.0763 19.2839 48.0745 24.0396C48.0676 30.4131 45.5318 36.5235 41.0243 41.0294C36.5167 45.5356 30.4053 48.0689 24.0317 48.0737ZM32.1436 14.2788C31.7928 14.2788 31.4501 14.3828 31.1584 14.5776C30.8668 14.7724 30.6395 15.0493 30.5053 15.3733C30.3713 15.6973 30.3361 16.0538 30.4045 16.3978C30.473 16.7417 30.6418 17.0576 30.8897 17.3056C31.1378 17.5536 31.4536 17.7224 31.7976 17.7909C32.1415 17.8593 32.498 17.8242 32.822 17.69C33.1461 17.5558 33.423 17.3285 33.6178 17.0369C33.8126 16.7453 33.9167 16.4025 33.9167 16.0519C33.9167 15.5816 33.7297 15.1306 33.3972 14.7981C33.0647 14.4656 32.6138 14.2788 32.1436 14.2788ZM24.2355 16.566C22.757 16.5643 21.3113 17.0011 20.0811 17.8213C18.8509 18.6414 17.8917 19.8079 17.3247 21.1735C16.7576 22.5389 16.6084 24.0417 16.8958 25.4921C17.1831 26.9425 17.8942 28.2748 18.939 29.321C19.9838 30.3671 21.3155 31.0796 22.7655 31.3689C24.2155 31.6579 25.7186 31.5104 27.0847 30.945C28.4507 30.3796 29.6186 29.4217 30.4401 28.1925C31.2617 26.9633 31.7003 25.5181 31.7003 24.0396C31.6978 22.0596 30.9109 20.1616 29.5119 18.7607C28.1128 17.3599 26.2155 16.5707 24.2355 16.566ZM24.2355 28.8179C23.2884 28.8179 22.3624 28.5369 21.5749 28.0106C20.7876 27.4841 20.174 26.736 19.8118 25.8606C19.4497 24.9854 19.3555 24.0223 19.5409 23.0935C19.7265 22.1646 20.1832 21.3116 20.8536 20.6423C21.524 19.9733 22.3778 19.5181 23.307 19.3343C24.2363 19.1506 25.1992 19.2466 26.0738 19.6104C26.9484 19.9741 27.6955 20.5891 28.2203 21.3775C28.7453 22.166 29.0247 23.0923 29.0228 24.0396C29.0205 25.3077 28.5151 26.5231 27.6176 27.4189C26.7201 28.3148 25.5038 28.8179 24.2355 28.8179ZM39.3067 17.8249C39.3067 15.4078 38.3465 13.0898 36.6374 11.3806C34.9282 9.6715 32.6101 8.71133 30.1932 8.71133H18.1628C15.7457 8.71133 13.4277 9.6715 11.7185 11.3806C10.0094 13.0898 9.04922 15.4078 9.04922 17.8249V29.8552C9.04922 32.2723 10.0094 34.5904 11.7185 36.2994C13.4277 38.0087 15.7457 38.9689 18.1628 38.9689H30.1932C32.6101 38.9689 34.9282 38.0087 36.6374 36.2994C38.3465 34.5904 39.3067 32.2723 39.3067 29.8552V17.8249ZM36.452 29.8552C36.452 31.5152 35.7926 33.1071 34.619 34.281C33.4451 35.4548 31.8532 36.1142 30.1932 36.1142H18.1628C16.5036 36.1119 14.9129 35.4517 13.7397 34.2785C12.5664 33.1052 11.9062 31.5144 11.9039 29.8552V17.8249C11.9062 16.1657 12.5664 14.575 13.7397 13.4018C14.9129 12.2285 16.5036 11.5683 18.1628 11.566H30.1932C31.8532 11.566 33.4451 12.2254 34.619 13.3992C35.7926 14.573 36.452 16.165 36.452 17.8249V29.8552Z" fill="url(#paint0_linear_175_105)"/>
</g>
<defs>
<linearGradient id="paint0_linear_175_105" x1="4.61652" y1="40.5735" x2="64.254" y2="-10.2074" gradientUnits="userSpaceOnUse">
<stop stop-color="#FFE185"/>
<stop offset="0.21" stop-color="#FFBB36"/>
<stop offset="0.38" stop-color="#FF5176"/>
<stop offset="0.52" stop-color="#F63395"/>
<stop offset="0.74" stop-color="#A436D2"/>
<stop offset="1" stop-color="#5F4EED"/>
</linearGradient>
<clipPath id="clip0_175_105">
<rect width="50" height="50" fill="white"/>
</clipPath>
</defs>
</svg>
