<svg width="50" height="50" viewBox="0 0 50 50" fill="none" xmlns="http://www.w3.org/2000/svg">
<path d="M24.0385 48.0769C37.3146 48.0769 48.0769 37.3146 48.0769 24.0385C48.0769 10.7624 37.3146 0 24.0385 0C10.7624 0 0 10.7624 0 24.0385C0 37.3146 10.7624 48.0769 24.0385 48.0769Z" fill="#039BE5"/>
<path d="M10.9992 23.5173L34.1763 14.581C35.2519 14.1924 36.1915 14.8435 35.8429 16.4701L35.845 16.4681L31.8987 35.0598C31.6062 36.3779 30.8229 36.6984 29.7271 36.0775L23.7175 31.6484L20.8188 34.4407C20.4985 34.7613 20.2279 35.0317 19.6069 35.0317L20.0337 28.9159L31.1715 18.8539C31.6562 18.4272 31.0633 18.1868 30.4242 18.6115L16.6603 27.2773L10.7268 25.4263C9.43869 25.0177 9.41066 24.1384 10.9992 23.5173Z" fill="white"/>
</svg>
