<svg width="97" height="96" viewBox="0 0 97 96" fill="none" xmlns="http://www.w3.org/2000/svg">
<path d="M48.4153 95.7344C22.0065 95.7344 0.597656 74.3264 0.597656 47.917C0.597656 21.5077 22.0065 0.0997127 48.4153 0.0997127C74.8243 0.0997127 96.233 21.5077 96.233 47.917C96.233 74.3264 74.8243 95.7344 48.4153 95.7344Z" fill="#1EB6EA"/>
<path d="M22.9375 63.9252C27.564 66.8919 33.0588 68.6226 38.962 68.6226C58.3714 68.6226 69.3364 52.2292 68.6766 37.5239C70.7183 36.0519 72.4907 34.2106 73.8927 32.1132C72.0167 32.9439 70.0016 33.5066 67.8886 33.7586C70.0459 32.4666 71.7036 30.4186 72.4839 27.9746C70.464 29.1732 68.226 30.0439 65.847 30.5132C63.9391 28.4812 61.2224 27.2119 58.2146 27.2119C51.4683 27.2119 46.5088 33.5092 48.0323 40.0479C39.3438 39.6132 31.6407 35.4506 26.486 29.1239C23.747 33.8239 25.0651 39.9719 29.7214 43.0826C28.0068 43.0292 26.3927 42.5572 24.9844 41.7746C24.8714 46.6186 28.3418 51.1479 33.3694 52.1586C31.8974 52.5586 30.286 52.6492 28.65 52.3359C29.9776 56.4906 33.8391 59.5119 38.4146 59.5959C34.0203 63.0426 28.4834 64.5799 22.9375 63.9252" fill="white"/>
</svg>
